<svg width="18" height="19" viewBox="0 0 18 19" fill="none" xmlns="http://www.w3.org/2000/svg">
<path d="M6.5 16C6.20333 16 5.91332 16.088 5.66664 16.2528C5.41997 16.4176 5.22771 16.6519 5.11418 16.926C5.00065 17.2001 4.97094 17.5017 5.02882 17.7926C5.0867 18.0836 5.22956 18.3509 5.43934 18.5607C5.64912 18.7704 5.91639 18.9133 6.20736 18.9712C6.49834 19.0291 6.79994 18.9993 7.07403 18.8858C7.34811 18.7723 7.58238 18.58 7.7472 18.3334C7.91203 18.0867 8 17.7967 8 17.5C8 17.1022 7.84196 16.7206 7.56066 16.4393C7.27936 16.158 6.89782 16 6.5 16ZM17 13H5C4.73478 13 4.48043 12.8946 4.29289 12.7071C4.10536 12.5196 4 12.2652 4 12C4 11.7348 4.10536 11.4804 4.29289 11.2929C4.48043 11.1054 4.73478 11 5 11H13.491C14.1425 10.998 14.7758 10.7848 15.2959 10.3925C15.8161 10.0002 16.195 9.44986 16.376 8.824L17.961 3.274C18.0034 3.12526 18.0107 2.96872 17.9823 2.81669C17.954 2.66465 17.8907 2.52126 17.7976 2.3978C17.7045 2.27433 17.584 2.17414 17.4456 2.10512C17.3072 2.0361 17.1547 2.00011 17 2H4.74C4.53281 1.41702 4.15083 0.912132 3.64616 0.554211C3.14149 0.196289 2.5387 0.00275366 1.92 0H1C0.734784 0 0.48043 0.105357 0.292893 0.292893C0.105357 0.48043 0 0.734784 0 1C0 1.26522 0.105357 1.51957 0.292893 1.70711C0.48043 1.89464 0.734784 2 1 2H1.921C2.13815 2.00069 2.34924 2.0717 2.52266 2.2024C2.69608 2.33309 2.8225 2.51644 2.883 2.725L3.038 3.27V3.275L4.679 9.017C3.91517 9.09866 3.21176 9.47022 2.71375 10.0551C2.21574 10.64 1.96107 11.3936 2.00222 12.1607C2.04338 12.9278 2.37722 13.6499 2.93496 14.1781C3.49269 14.7064 4.23181 15.0005 5 15H17C17.2652 15 17.5196 14.8946 17.7071 14.7071C17.8946 14.5196 18 14.2652 18 14C18 13.7348 17.8946 13.4804 17.7071 13.2929C17.5196 13.1054 17.2652 13 17 13ZM15.674 4L14.454 8.274C14.3936 8.48291 14.2671 8.6666 14.0935 8.7975C13.9199 8.9284 13.7085 8.99946 13.491 9H6.754L6.499 8.108L5.326 4H15.674ZM14.5 16C14.2033 16 13.9133 16.088 13.6666 16.2528C13.42 16.4176 13.2277 16.6519 13.1142 16.926C13.0006 17.2001 12.9709 17.5017 13.0288 17.7926C13.0867 18.0836 13.2296 18.3509 13.4393 18.5607C13.6491 18.7704 13.9164 18.9133 14.2074 18.9712C14.4983 19.0291 14.7999 18.9993 15.074 18.8858C15.3481 18.7723 15.5824 18.58 15.7472 18.3334C15.912 18.0867 16 17.7967 16 17.5C16 17.1022 15.842 16.7206 15.5607 16.4393C15.2794 16.158 14.8978 16 14.5 16Z" fill="#BF0DCE"/>
</svg>
