<svg width="11" height="14" viewBox="0 0 11 14" fill="none" xmlns="http://www.w3.org/2000/svg">
<path d="M1.75 1.875V12.1125L4.62156 9.81469C4.8709 9.61523 5.1807 9.50657 5.5 9.50657C5.8193 9.50657 6.1291 9.61523 6.37844 9.81469L9.25 12.1116V1.875H1.75ZM1.28125 0.9375H9.71875C9.84307 0.9375 9.9623 0.986886 10.0502 1.07479C10.1381 1.1627 10.1875 1.28193 10.1875 1.40625V13.0875C10.1874 13.1757 10.1624 13.2621 10.1153 13.3367C10.0683 13.4113 10.0012 13.4712 9.92169 13.5094C9.84219 13.5476 9.75351 13.5625 9.66587 13.5526C9.57823 13.5426 9.49518 13.5082 9.42625 13.4531L5.7925 10.5469C5.70944 10.4805 5.6063 10.4444 5.5 10.4444C5.3937 10.4444 5.29056 10.4805 5.2075 10.5469L1.57375 13.4531C1.50482 13.5082 1.42177 13.5426 1.33413 13.5526C1.24649 13.5625 1.15781 13.5476 1.07831 13.5094C0.998796 13.4712 0.931675 13.4113 0.884655 13.3367C0.837635 13.2621 0.812626 13.1757 0.8125 13.0875V1.40625C0.8125 1.28193 0.861886 1.1627 0.949794 1.07479C1.0377 0.986886 1.15693 0.9375 1.28125 0.9375Z" fill="#6C6C6C"/>
</svg>
